<?xml version="1.0" encoding="UTF-8"?>
<svg id="Layer_1" data-name="Layer 1" xmlns="http://www.w3.org/2000/svg" viewBox="0 0 28.51 27.65">
  <defs>
    <style>
        .cls-1 { fill: #224102; }
        .cls-2 { fill: #04080F; }
        @media (prefers-color-scheme: dark) {
          .cls-1 { fill: #FFA630; }
        }
    </style>
  </defs>
  <path class="cls-1" d="m4.1,27.65H0L8.96,0h4.03L4.1,27.65Z"/>
  <path class="cls-2" d="m15.49,14.85c0-1.15.16-2.21.48-3.18.32-.97.78-1.8,1.39-2.48.61-.68,1.37-1.22,2.27-1.6.91-.38,1.94-.58,3.09-.58.49,0,1.01.02,1.55.06.54.04,1.07.1,1.58.18.51.08,1,.16,1.46.26.46.1.86.2,1.2.3v19.84h-3.94v-5.7c-.49.23-1.01.42-1.55.56-.54.14-1.06.21-1.55.21-.98,0-1.85-.19-2.59-.56s-1.37-.9-1.87-1.58c-.5-.68-.88-1.51-1.14-2.48-.26-.97-.38-2.05-.38-3.25Zm4,.13c0,1.39.23,2.46.69,3.22.46.76,1.16,1.14,2.1,1.14.45,0,.87-.05,1.26-.16.39-.11.74-.24,1.04-.42v-8.26c-.19-.02-.45-.05-.78-.08-.33-.03-.68-.05-1.04-.05-1.09,0-1.9.43-2.45,1.3-.54.86-.82,1.97-.82,3.31Z"/>
</svg>